<svg xmlns="http://www.w3.org/2000/svg" viewBox="0 0 340 80" width="340" height="80" shape-rendering="crispEdges">
  <style>
    .pixel { fill: #e6edf3; } /* Default to dark mode text color */
    @media (prefers-color-scheme: light) { .pixel { fill: #1F2328; } }
  </style>
  <rect class="pixel" x="200" y="0" width="10.2" height="10.2" />
  <rect class="pixel" x="270" y="10" width="10.2" height="10.2" />
  <rect class="pixel" x="0" y="20" width="10.2" height="10.2" />
  <rect class="pixel" x="10" y="20" width="10.2" height="10.2" />
  <rect class="pixel" x="20" y="20" width="10.2" height="10.2" />
  <rect class="pixel" x="40" y="20" width="10.2" height="10.2" />
  <rect class="pixel" x="50" y="20" width="10.2" height="10.2" />
  <rect class="pixel" x="60" y="20" width="10.2" height="10.2" />
  <rect class="pixel" x="80" y="20" width="10.2" height="10.2" />
  <rect class="pixel" x="100" y="20" width="10.2" height="10.2" />
  <rect class="pixel" x="120" y="20" width="10.2" height="10.2" />
  <rect class="pixel" x="130" y="20" width="10.2" height="10.2" />
  <rect class="pixel" x="140" y="20" width="10.2" height="10.2" />
  <rect class="pixel" x="160" y="20" width="10.2" height="10.2" />
  <rect class="pixel" x="180" y="20" width="10.2" height="10.2" />
  <rect class="pixel" x="200" y="20" width="10.2" height="10.2" />
  <rect class="pixel" x="220" y="20" width="10.2" height="10.2" />
  <rect class="pixel" x="230" y="20" width="10.2" height="10.2" />
  <rect class="pixel" x="240" y="20" width="10.2" height="10.2" />
  <rect class="pixel" x="260" y="20" width="10.2" height="10.2" />
  <rect class="pixel" x="270" y="20" width="10.2" height="10.2" />
  <rect class="pixel" x="280" y="20" width="10.2" height="10.2" />
  <rect class="pixel" x="300" y="20" width="10.2" height="10.2" />
  <rect class="pixel" x="320" y="20" width="10.2" height="10.2" />
  <rect class="pixel" x="0" y="30" width="10.2" height="10.2" />
  <rect class="pixel" x="40" y="30" width="10.2" height="10.2" />
  <rect class="pixel" x="80" y="30" width="10.2" height="10.2" />
  <rect class="pixel" x="100" y="30" width="10.2" height="10.2" />
  <rect class="pixel" x="120" y="30" width="10.2" height="10.2" />
  <rect class="pixel" x="140" y="30" width="10.2" height="10.2" />
  <rect class="pixel" x="170" y="30" width="10.2" height="10.2" />
  <rect class="pixel" x="200" y="30" width="10.2" height="10.2" />
  <rect class="pixel" x="220" y="30" width="10.2" height="10.2" />
  <rect class="pixel" x="230" y="30" width="10.2" height="10.2" />
  <rect class="pixel" x="240" y="30" width="10.2" height="10.2" />
  <rect class="pixel" x="270" y="30" width="10.2" height="10.2" />
  <rect class="pixel" x="300" y="30" width="10.2" height="10.2" />
  <rect class="pixel" x="320" y="30" width="10.2" height="10.2" />
  <rect class="pixel" x="0" y="40" width="10.2" height="10.2" />
  <rect class="pixel" x="60" y="40" width="10.2" height="10.2" />
  <rect class="pixel" x="80" y="40" width="10.2" height="10.2" />
  <rect class="pixel" x="100" y="40" width="10.2" height="10.2" />
  <rect class="pixel" x="120" y="40" width="10.2" height="10.2" />
  <rect class="pixel" x="140" y="40" width="10.2" height="10.2" />
  <rect class="pixel" x="170" y="40" width="10.2" height="10.2" />
  <rect class="pixel" x="200" y="40" width="10.2" height="10.2" />
  <rect class="pixel" x="220" y="40" width="10.2" height="10.2" />
  <rect class="pixel" x="270" y="40" width="10.2" height="10.2" />
  <rect class="pixel" x="300" y="40" width="10.2" height="10.2" />
  <rect class="pixel" x="320" y="40" width="10.2" height="10.2" />
  <rect class="pixel" x="0" y="50" width="10.2" height="10.2" />
  <rect class="pixel" x="40" y="50" width="10.2" height="10.2" />
  <rect class="pixel" x="50" y="50" width="10.2" height="10.2" />
  <rect class="pixel" x="60" y="50" width="10.2" height="10.2" />
  <rect class="pixel" x="80" y="50" width="10.2" height="10.2" />
  <rect class="pixel" x="90" y="50" width="10.2" height="10.2" />
  <rect class="pixel" x="100" y="50" width="10.2" height="10.2" />
  <rect class="pixel" x="120" y="50" width="10.2" height="10.2" />
  <rect class="pixel" x="140" y="50" width="10.2" height="10.2" />
  <rect class="pixel" x="160" y="50" width="10.2" height="10.2" />
  <rect class="pixel" x="180" y="50" width="10.2" height="10.2" />
  <rect class="pixel" x="200" y="50" width="10.2" height="10.2" />
  <rect class="pixel" x="220" y="50" width="10.2" height="10.2" />
  <rect class="pixel" x="230" y="50" width="10.2" height="10.2" />
  <rect class="pixel" x="240" y="50" width="10.2" height="10.2" />
  <rect class="pixel" x="270" y="50" width="10.2" height="10.2" />
  <rect class="pixel" x="280" y="50" width="10.2" height="10.2" />
  <rect class="pixel" x="300" y="50" width="10.2" height="10.2" />
  <rect class="pixel" x="310" y="50" width="10.2" height="10.2" />
  <rect class="pixel" x="320" y="50" width="10.2" height="10.2" />
  <rect class="pixel" x="100" y="60" width="10.2" height="10.2" />
  <rect class="pixel" x="320" y="60" width="10.2" height="10.2" />
  <rect class="pixel" x="80" y="70" width="10.2" height="10.2" />
  <rect class="pixel" x="90" y="70" width="10.2" height="10.2" />
  <rect class="pixel" x="100" y="70" width="10.2" height="10.2" />
  <rect class="pixel" x="300" y="70" width="10.2" height="10.2" />
  <rect class="pixel" x="310" y="70" width="10.2" height="10.2" />
  <rect class="pixel" x="320" y="70" width="10.2" height="10.2" />
</svg>